<?xml version="1.0" standalone="no"?>
<!DOCTYPE svg PUBLIC "-//W3C//DTD SVG 20010904//EN"
 "http://www.w3.org/TR/2001/REC-SVG-20010904/DTD/svg10.dtd">
<svg version="1.0" xmlns="http://www.w3.org/2000/svg"
 width="894.000000pt" height="894.000000pt" viewBox="0 0 894.000000 894.000000"
 preserveAspectRatio="xMidYMid meet">
<metadata>
Created by potrace 1.14, written by Peter Selinger 2001-2017
</metadata>
<g transform="translate(0.000000,894.000000) scale(0.100000,-0.100000)"
fill="#000000" stroke="none">
<path d="M435 5767 c-2 -7 -3 -64 -2 -127 2 -63 -1 -125 -5 -138 -4 -13 -5
-21 0 -19 4 3 7 -321 7 -719 0 -398 3 -724 7 -724 5 0 8 -12 8 -27 0 -16 7
-50 15 -77 8 -26 12 -53 8 -59 -3 -5 -1 -7 4 -4 6 4 17 -14 27 -42 16 -49 79
-163 103 -189 7 -7 13 -17 13 -21 0 -4 18 -27 40 -51 23 -25 55 -61 73 -80 18
-20 52 -51 76 -70 25 -19 53 -42 62 -50 39 -33 49 -41 49 -35 0 4 7 0 15 -7
30 -27 51 -40 134 -84 24 -13 50 -29 57 -35 8 -6 14 -9 14 -5 0 3 27 -7 60
-24 33 -17 60 -27 60 -23 0 5 4 3 8 -3 10 -16 105 -43 134 -39 27 4 62 13 66
15 1 2 5 3 10 4 28 6 248 112 284 137 15 11 28 17 28 12 0 -4 4 -3 8 3 4 6 27
24 52 39 25 15 47 31 50 34 3 3 23 20 45 36 53 40 242 233 237 242 -3 6 34 63
41 63 5 0 5 5 2 10 -3 6 -1 10 6 10 7 0 9 3 6 6 -4 4 3 20 14 35 11 16 17 29
13 29 -4 0 1 9 12 21 10 12 18 24 17 28 -2 3 4 27 12 52 9 25 18 55 20 67 3
12 8 32 11 45 3 12 8 42 9 67 3 35 7 1477 5 1667 l0 42 -956 0 c-730 0 -956
-3 -959 -12z m273 -576 c17 -11 14 -23 -10 -40 -16 -11 -22 -11 -28 -1 -5 8
-10 3 -14 -14 -4 -17 -13 -26 -26 -26 -11 0 -20 2 -20 5 0 14 47 75 60 79 24
6 24 6 38 -3z m32 -811 c29 -25 37 -99 10 -95 -8 1 -14 10 -14 19 2 14 -4 16
-26 11 -23 -5 -31 -2 -41 17 l-13 23 -6 -25 c-4 -16 -14 -26 -28 -28 -26 -4
-31 22 -6 32 8 3 13 10 9 15 -9 16 36 51 65 51 15 0 38 -9 50 -20z"/>
<path d="M2633 5559 c-17 -6 -18 -22 -13 -244 3 -130 3 -238 1 -240 -3 -3 -3
-31 0 -190 0 -22 0 -44 -1 -50 -3 -17 2 -120 5 -124 6 -6 236 -2 271 5 40 7
97 58 114 103 16 41 20 183 5 231 -12 43 -42 82 -74 100 l-24 12 31 20 c43 27
62 88 58 191 -4 118 -32 163 -116 182 -43 11 -232 13 -257 4z m249 -106 c40
-40 39 -187 -2 -227 -14 -15 -34 -19 -87 -20 l-68 -1 -2 115 c-3 165 -7 158
73 155 50 -2 71 -7 86 -22z m-7 -357 c19 -8 36 -19 36 -23 1 -4 3 -19 6 -33
10 -59 9 -145 -1 -152 -8 -5 -7 -8 2 -8 10 0 9 -6 -2 -29 -22 -41 -64 -55
-157 -52 l-36 1 1 123 c1 67 -2 130 -7 140 -4 10 -4 17 2 17 6 0 8 7 5 15 -5
12 5 15 55 15 34 0 77 -7 96 -14z"/>
<path d="M3249 5549 c-4 -9 -6 -18 -4 -21 2 -2 0 -20 -5 -39 -5 -19 -11 -51
-15 -73 -3 -21 -7 -41 -9 -45 -3 -4 -7 -28 -10 -54 -3 -26 -10 -56 -15 -66 -6
-10 -8 -21 -5 -24 3 -3 1 -22 -5 -43 -5 -22 -12 -52 -15 -68 -5 -28 -20 -101
-32 -156 -3 -14 -7 -34 -9 -45 -9 -54 -17 -100 -21 -119 -19 -96 -21 -92 46
-86 33 3 28 -7 46 85 3 17 7 37 9 45 2 8 4 20 4 26 1 13 90 24 98 11 2 -4 9
-4 16 0 11 6 98 5 105 -2 2 -2 5 -11 7 -22 2 -10 4 -18 5 -18 1 0 4 -13 6 -30
2 -16 7 -41 11 -55 3 -14 6 -28 5 -32 -2 -8 9 -10 48 -10 48 0 61 3 55 12 -4
6 -8 23 -11 38 -4 27 -18 101 -29 157 -4 17 -8 39 -10 50 -8 50 -17 93 -26
135 -15 65 -18 79 -24 125 -3 22 -8 48 -11 57 -9 31 -30 138 -39 204 -11 74
-16 79 -90 79 -52 0 -69 -3 -76 -16z m95 -224 c3 -16 8 -41 11 -55 3 -14 8
-36 11 -50 2 -14 7 -36 11 -50 3 -14 7 -32 8 -40 1 -8 5 -31 9 -50 4 -19 9
-44 11 -55 2 -11 4 -20 5 -20 1 0 3 -8 5 -17 4 -20 4 -20 -80 -20 -120 -1
-114 -3 -103 40 5 20 11 51 14 67 2 17 7 37 10 45 3 8 8 31 10 50 6 42 12 75
14 75 1 0 4 11 6 25 5 44 21 112 31 140 6 15 15 -14 27 -85z"/>
<path d="M3649 5560 c-12 -7 -14 -80 -13 -427 l0 -418 42 -6 c23 -3 46 -3 52
1 6 3 10 74 11 171 l1 165 57 -1 c108 -2 177 32 208 100 27 58 26 275 -1 325
-41 76 -78 91 -226 95 -65 1 -124 -1 -131 -5z m217 -89 c6 -1 22 -11 36 -24
23 -22 26 -31 27 -121 1 -54 -3 -113 -9 -131 -16 -49 -63 -65 -168 -56 -9 1
-12 40 -11 165 0 90 2 166 5 168 3 4 79 3 120 -1z"/>
<path d="M4109 5551 c-1 -20 -1 -799 0 -826 1 -17 8 -20 46 -20 55 0 54 -5 53
165 0 195 -5 176 50 175 88 -2 153 19 193 64 20 22 36 46 37 53 7 46 6 258 -1
258 -5 0 -5 4 -2 10 3 5 -2 21 -11 35 -9 14 -13 25 -9 25 19 0 -66 62 -94 68
-9 2 -71 4 -138 6 -105 2 -123 0 -124 -13z m239 -85 c39 -13 50 -51 48 -170
-2 -105 -3 -109 -29 -132 -16 -13 -38 -25 -50 -25 -73 -4 -93 -3 -102 3 -15
10 -11 318 5 328 14 9 95 6 128 -4z"/>
<path d="M4579 5565 c-1 0 -2 -192 -3 -427 -2 -380 0 -428 14 -429 113 -6 340
-2 342 6 0 6 2 26 3 45 l1 35 -130 5 -131 5 0 130 c-1 72 1 137 3 145 3 13 20
15 95 15 51 -1 98 0 104 3 7 2 12 16 12 30 -3 59 -3 59 -97 58 -48 -1 -94 0
-102 2 -13 3 -16 25 -16 140 0 75 4 139 8 142 4 3 61 5 127 4 132 -1 129 -2
129 61 l1 30 -180 0 c-98 0 -180 0 -180 0z"/>
<path d="M5028 5560 c0 -3 -2 -195 -3 -427 l-1 -423 35 -1 c255 -6 305 9 352
105 17 36 19 62 16 331 -2 259 -4 294 -20 318 -9 15 -14 27 -10 27 3 0 -8 13
-26 29 -19 17 -51 33 -75 37 -48 9 -265 12 -268 4z m259 -100 c12 -8 27 -25
33 -39 14 -30 15 -526 1 -562 -19 -51 -52 -63 -161 -60 l-35 1 1 328 c1 180 2
332 3 338 2 16 131 11 158 -6z"/>
<path d="M5659 5549 c-5 -10 -10 -31 -11 -46 -1 -15 -4 -32 -7 -38 -3 -5 -6
-21 -7 -35 -1 -14 -2 -25 -3 -25 -3 0 -7 -21 -16 -75 -4 -24 -8 -47 -10 -50
-4 -6 -17 -85 -20 -116 -1 -11 -4 -25 -8 -30 -3 -6 -9 -33 -13 -60 -3 -27 -8
-53 -11 -57 -2 -4 -6 -22 -9 -40 -2 -18 -14 -85 -27 -149 l-23 -118 20 -1 c22
-1 70 2 73 4 0 1 3 16 6 32 3 17 8 49 12 72 4 24 13 48 21 54 11 9 72 12 186
10 26 -1 36 -19 43 -86 7 -60 18 -85 39 -86 11 0 33 -2 48 -3 24 -1 26 1 23
29 -4 33 -12 77 -21 115 -3 14 -8 35 -10 48 -2 12 -6 33 -9 47 -3 14 -7 36
-10 50 -3 14 -7 36 -10 50 -3 14 -7 37 -10 53 -5 27 -10 48 -22 107 -3 17 -5
38 -5 48 0 9 -2 17 -6 17 -4 0 -7 10 -8 23 -2 35 -13 99 -23 135 -5 18 -10 35
-10 37 0 24 -15 95 -20 96 -3 1 -34 2 -69 3 -51 2 -65 -1 -73 -15z m75 -160
c-3 -6 -2 -14 4 -18 7 -4 13 -25 15 -46 2 -22 8 -48 12 -58 4 -10 5 -21 2 -24
-4 -3 -2 -14 3 -24 6 -10 12 -33 14 -51 3 -18 6 -33 7 -33 1 0 2 -11 3 -25 1
-14 4 -29 7 -35 3 -5 6 -23 7 -39 1 -16 7 -34 12 -41 18 -22 -12 -31 -90 -29
-106 2 -103 2 -96 21 4 9 9 32 12 52 3 20 9 50 14 66 5 17 11 48 14 70 3 22 8
54 12 70 3 17 7 36 7 43 0 6 3 12 6 12 3 0 7 15 8 33 2 17 5 41 7 52 2 11 5
27 6 35 0 12 3 11 11 -3 5 -9 7 -22 3 -28z"/>
<path d="M3270 4414 c-54 -19 -100 -50 -110 -75 -7 -16 -15 -29 -19 -29 -12 0
-14 -49 -15 -335 -1 -308 2 -327 59 -378 39 -35 48 -41 65 -45 40 -9 109 -8
147 3 60 18 101 64 121 135 8 30 7 580 -2 580 -4 0 -6 6 -3 13 7 19 -43 88
-79 109 -31 18 -134 32 -164 22z m117 -110 c7 -10 13 -14 14 -8 0 5 5 -2 11
-16 18 -38 19 -557 2 -591 -30 -60 -115 -73 -163 -25 l-26 26 -3 277 c-2 296
1 318 47 346 32 19 101 14 118 -9z"/>
<path d="M4869 4411 c-66 -21 -118 -77 -126 -134 -8 -69 -8 -127 1 -127 5 0 6
-3 3 -6 -8 -8 43 -104 55 -104 4 0 8 -7 8 -15 0 -8 4 -15 10 -15 5 0 19 -10
32 -22 13 -13 43 -38 68 -57 71 -54 102 -104 105 -174 3 -51 0 -62 -23 -88
-20 -23 -37 -31 -70 -34 -23 -2 -42 1 -42 6 0 5 -6 9 -14 9 -24 0 -49 51 -50
104 l-2 51 -42 6 c-25 3 -43 1 -45 -5 -8 -21 1 -122 14 -151 7 -16 12 -33 11
-37 -1 -5 3 -8 9 -8 6 0 20 -11 31 -26 11 -14 23 -23 26 -20 3 3 11 1 19 -5 7
-7 44 -12 82 -12 53 0 77 5 109 23 79 45 111 167 70 276 -18 50 -88 130 -148
171 -29 19 -109 102 -111 114 -3 19 -5 24 -11 34 -10 16 -3 87 12 117 26 55
123 60 160 7 11 -15 21 -45 22 -66 1 -43 14 -56 39 -42 11 6 20 5 24 -1 3 -5
12 -7 19 -4 16 6 13 92 -4 124 -6 11 -8 20 -5 20 12 0 -52 63 -78 77 -33 17
-122 25 -158 14z"/>
<path d="M8497 4406 c-66 -18 -107 -61 -124 -129 -6 -25 -6 -563 -1 -589 2
-10 7 -21 11 -24 4 -4 7 -14 7 -21 0 -23 56 -72 97 -87 89 -31 202 4 241 73
13 22 25 64 28 93 5 50 8 252 4 273 -1 6 -2 12 -2 15 1 8 -168 3 -176 -5 -7
-7 -9 -74 -2 -76 3 -1 23 -3 45 -4 l40 -2 0 -113 c1 -105 -1 -115 -23 -142
-13 -15 -28 -26 -33 -22 -5 3 -9 1 -9 -4 0 -5 -18 -8 -41 -7 -30 1 -47 9 -67
31 l-27 29 -2 245 c-1 135 1 265 4 288 8 62 40 96 89 96 44 0 64 -4 80 -19 16
-15 33 -75 32 -115 -1 -62 -1 -61 48 -58 l47 3 0 51 c0 29 -3 57 -7 63 -4 6
-5 11 -2 11 10 0 -27 83 -45 101 -52 52 -129 68 -212 45z"/>
<path d="M2634 4398 c-7 -10 -12 -789 -5 -839 1 -4 22 -6 49 -5 l47 1 1 141
c0 132 2 144 25 184 l26 42 32 -61 c17 -33 28 -61 24 -61 -5 0 -1 -5 8 -10 9
-5 20 -22 24 -37 3 -15 15 -39 26 -54 10 -15 19 -34 19 -43 0 -9 5 -16 10 -16
6 0 10 -9 10 -20 0 -11 3 -20 8 -20 4 0 12 -10 17 -22 8 -18 19 -24 57 -26 58
-4 59 -6 -22 153 -33 66 -60 125 -60 131 0 7 -4 14 -8 16 -9 3 -61 107 -74
148 -8 25 26 110 44 110 4 0 7 3 6 8 -2 4 8 25 21 47 14 22 25 44 25 48 1 4 7
11 14 16 8 5 13 10 11 12 -5 9 13 49 22 49 5 0 9 6 9 14 0 8 6 21 13 28 11 12
37 63 37 73 0 9 -85 5 -100 -5 -8 -5 -12 -10 -7 -10 4 0 -4 -18 -18 -40 -14
-22 -25 -44 -25 -50 0 -5 -4 -10 -10 -10 -5 0 -10 -9 -10 -19 0 -11 -4 -21 -9
-23 -4 -1 -25 -34 -46 -73 -73 -133 -83 -150 -91 -150 -5 0 -8 86 -9 190 l0
190 -41 3 c-25 2 -44 -2 -50 -10z"/>
<path d="M3589 4408 c-1 -2 -3 -22 -4 -45 l-2 -43 56 -1 c31 -1 66 0 77 0 13
1 23 -5 25 -16 2 -10 4 -183 4 -384 l-1 -365 51 0 50 1 0 383 c0 334 2 382 15
381 8 -1 44 -1 80 0 l66 1 -1 43 0 42 -207 3 c-115 1 -209 1 -209 0z"/>
<path d="M4166 4402 c-3 -5 -8 -22 -10 -38 -3 -16 -8 -39 -10 -50 -2 -12 -7
-38 -10 -59 -4 -20 -8 -40 -10 -44 -3 -3 -7 -25 -10 -47 -7 -42 -10 -61 -27
-134 -5 -25 -11 -61 -13 -80 -2 -19 -5 -35 -6 -35 -1 0 -3 -11 -6 -25 -2 -14
-7 -36 -10 -50 -4 -14 -8 -34 -9 -45 -1 -11 -5 -33 -9 -50 -18 -80 -23 -108
-30 -156 l-5 -36 44 0 c26 0 45 5 46 11 0 6 2 18 4 26 2 8 6 29 9 45 12 66 18
85 24 86 4 0 53 2 109 4 112 4 106 7 118 -65 3 -19 10 -51 16 -72 9 -35 11
-36 55 -36 l46 0 -6 41 c-7 48 -14 82 -16 82 -1 0 -3 9 -5 20 -8 54 -15 92
-20 115 -3 14 -8 41 -11 60 -3 19 -8 44 -12 55 -7 23 -6 16 -17 80 -5 28 -9
52 -10 55 0 3 -5 28 -10 55 -4 28 -10 57 -12 65 -5 21 -11 49 -18 90 -16 88
-23 118 -30 130 -7 12 -132 13 -139 2z m78 -169 c4 -16 8 -41 10 -58 3 -16 9
-49 14 -72 5 -24 8 -43 5 -43 -3 0 -1 -6 5 -12 5 -7 13 -33 16 -58 3 -25 10
-58 14 -75 4 -16 8 -37 7 -45 -1 -8 3 -21 8 -27 20 -28 -9 -38 -97 -35 l-86 3
5 47 c3 25 9 60 14 76 9 29 28 126 36 186 2 14 4 25 5 25 1 0 3 7 5 15 2 8 6
29 10 45 3 17 7 36 7 43 2 22 16 12 22 -15z"/>
<path d="M5209 4368 c-4 -315 -2 -528 4 -528 5 0 5 -5 1 -11 -3 -6 -6 -37 -6
-70 1 -32 1 -92 1 -132 l1 -73 180 -1 180 -1 0 47 0 46 -130 -1 -130 0 0 147
0 147 100 0 c56 0 102 1 104 3 4 4 9 56 7 77 -1 9 -29 12 -106 12 l-105 0 0
146 0 145 126 -2 c86 -2 128 1 133 9 4 7 5 28 3 47 l-4 35 -179 0 -179 0 -1
-42z"/>
<path d="M5665 4404 c-8 -3 -11 -179 -4 -204 1 -3 1 -9 0 -14 -5 -24 -2 -238
3 -243 3 -3 2 -13 -2 -22 -4 -9 -7 -27 -6 -41 3 -29 4 -98 3 -120 0 -8 0 -46
1 -85 1 -38 1 -74 0 -80 -8 -35 1 -44 43 -42 l43 1 -1 308 c0 234 3 305 11
293 7 -9 15 -37 20 -63 4 -26 9 -54 11 -62 2 -8 5 -25 6 -37 2 -12 6 -25 10
-29 4 -4 7 -22 7 -40 0 -18 4 -35 8 -38 4 -2 9 -21 10 -42 2 -20 6 -42 9 -47
3 -6 7 -20 9 -31 4 -35 13 -79 24 -115 5 -19 7 -37 5 -42 -3 -4 -1 -10 5 -14
5 -3 10 -15 10 -26 0 -17 6 -19 45 -16 53 4 57 7 61 49 2 18 10 62 18 98 8 36
17 79 20 95 2 17 12 64 21 105 10 41 18 84 20 95 1 11 3 20 4 20 2 0 4 11 7
25 2 14 7 36 10 50 7 26 13 56 16 77 1 7 4 11 6 8 9 -9 8 -180 -2 -192 -5 -8
-5 -13 0 -13 10 0 10 -63 -1 -79 -3 -6 -3 -11 2 -11 9 0 10 -76 1 -86 -4 -3
-3 -17 3 -31 12 -31 11 -36 -2 -27 -8 4 -8 1 -2 -12 10 -21 10 -55 -1 -72 -3
-6 -2 -13 2 -16 5 -3 8 -23 6 -44 l-2 -40 46 2 47 1 0 425 0 425 -69 0 c-54 0
-70 -3 -72 -15 -2 -17 -10 -52 -19 -90 -3 -14 -8 -38 -10 -55 -8 -59 -16 -100
-22 -115 -3 -8 -7 -28 -9 -44 -2 -16 -9 -35 -15 -43 -9 -10 -8 -13 0 -13 7 0
9 -5 6 -10 -4 -6 -8 -20 -11 -33 -2 -12 -6 -32 -9 -44 -7 -32 -13 -59 -27
-131 -12 -66 -28 -70 -31 -8 -1 20 -5 36 -9 36 -5 0 -8 15 -8 33 0 19 -3 37
-7 41 -4 3 -8 14 -9 24 -1 9 -5 31 -8 47 -4 17 -9 41 -12 55 -2 14 -9 45 -14
70 -6 25 -12 56 -14 70 -3 14 -5 25 -6 25 -1 0 -3 11 -6 24 -2 13 -11 56 -19
95 -8 39 -15 74 -15 79 0 7 -117 9 -135 1z"/>
<path d="M6464 4402 c-9 -6 -18 -38 -40 -157 -3 -16 -7 -39 -9 -50 -2 -11 -6
-33 -9 -50 -5 -28 -15 -76 -20 -100 -7 -29 -20 -111 -18 -117 1 -5 -1 -8 -6
-8 -4 0 -8 -12 -8 -27 -1 -16 -5 -39 -8 -53 -4 -14 -9 -41 -12 -60 -3 -19 -8
-44 -11 -55 -4 -11 -8 -31 -9 -45 -1 -14 -5 -36 -8 -50 -20 -86 -22 -79 28
-78 45 1 55 12 61 68 4 40 17 100 23 101 18 4 198 5 208 2 6 -2 11 -9 12 -16
0 -7 7 -41 15 -77 8 -36 13 -68 11 -71 -2 -3 19 -7 45 -8 45 -1 49 1 53 24 3
14 2 25 -2 25 -4 0 -7 6 -8 13 -2 30 -21 135 -36 197 -7 31 -15 75 -21 115 -3
17 -7 41 -10 55 -4 14 -8 36 -11 50 -2 14 -7 36 -10 50 -8 33 -11 50 -18 91
-6 34 -16 85 -20 104 -2 6 -6 33 -11 60 -4 28 -12 56 -17 63 -11 13 -115 17
-134 4z m70 -173 c2 -13 6 -31 9 -39 4 -8 8 -31 11 -50 2 -19 5 -36 6 -37 3
-4 5 -10 15 -68 9 -53 11 -63 14 -67 1 -2 4 -16 7 -33 5 -36 12 -70 14 -70 1
0 3 -12 5 -27 l4 -28 -96 0 -95 0 6 33 c4 17 9 43 11 57 2 14 7 36 10 50 3 14
7 36 10 50 4 25 43 211 50 240 2 8 4 17 4 19 2 11 12 -10 15 -30z"/>
<path d="M6845 4400 c-4 -6 -5 -14 -2 -16 2 -3 1 -21 -3 -40 -4 -18 -5 -34 -1
-34 3 0 6 -16 6 -35 0 -19 -3 -35 -7 -35 -5 0 -4 -22 2 -40 6 -15 4 -47 -3
-62 -4 -10 -4 -18 0 -18 9 0 8 -92 -1 -115 -3 -8 -2 -15 2 -15 7 0 8 -60 2
-67 -3 -4 -3 -41 0 -50 6 -20 5 -40 -3 -57 -7 -13 -6 -16 3 -11 9 6 9 2 1 -14
-7 -11 -8 -21 -4 -21 10 0 10 -87 0 -96 -4 -4 -2 -13 4 -20 7 -8 7 -14 0 -18
-7 -5 -7 -15 -1 -32 5 -13 9 -30 7 -37 -1 -8 14 -13 46 -14 l47 -2 1 37 c0 20
1 101 1 179 0 157 -3 151 70 148 49 -2 91 -21 107 -47 9 -15 14 -65 16 -155 2
-88 7 -138 15 -148 20 -25 108 -16 93 9 -4 6 -8 67 -10 136 -1 69 -3 126 -4
128 -1 1 -2 5 -3 10 -10 44 -21 64 -51 91 -38 33 -42 41 -22 41 11 0 72 60 68
68 0 1 -1 3 0 5 9 31 13 178 5 222 -9 55 -43 97 -97 119 -44 17 -274 23 -284
6z m237 -88 c32 -8 50 -51 53 -128 5 -102 -16 -161 -58 -168 -6 -1 -16 -4 -22
-7 -5 -3 -32 -5 -60 -4 l-50 1 -2 145 c-1 79 0 150 2 157 5 13 92 15 137 4z"/>
<path d="M7479 4408 c-6 -21 -25 -112 -34 -163 -3 -16 -7 -41 -10 -55 -3 -14
-8 -38 -10 -54 -2 -15 -7 -38 -11 -50 -4 -11 -8 -30 -10 -41 -12 -85 -17 -112
-26 -128 -5 -10 -8 -21 -5 -23 3 -3 1 -22 -5 -42 -12 -49 -16 -69 -23 -117 -3
-22 -8 -47 -10 -55 -3 -8 -7 -31 -10 -50 -13 -77 -14 -75 33 -76 23 -1 42 2
43 5 0 3 8 42 17 86 l17 80 109 0 110 0 7 -28 c4 -15 10 -48 13 -72 10 -73 13
-76 65 -72 48 4 48 4 37 60 -3 15 -8 37 -10 50 -3 12 -9 43 -14 69 -5 26 -7
50 -4 53 3 3 1 5 -4 5 -5 0 -10 12 -10 28 -1 15 -9 61 -18 102 -9 41 -19 90
-22 109 -3 18 -8 43 -10 55 -3 11 -8 35 -11 51 -8 45 -11 60 -13 60 -1 0 -4
14 -6 30 -3 17 -6 37 -8 45 -1 8 -6 39 -11 68 -4 28 -12 52 -17 52 -5 0 -6 5
-3 10 4 6 -20 10 -64 10 -39 0 -71 -1 -72 -2z m77 -205 c-3 -6 -2 -13 3 -15 7
-3 49 -197 55 -254 1 -17 5 -35 8 -40 3 -5 9 -26 12 -46 l6 -38 -96 0 -95 0 6
38 c4 20 8 46 10 57 9 54 47 232 52 245 3 8 5 21 4 27 -1 7 3 32 10 55 l12 43
8 -30 c5 -16 7 -35 5 -42z"/>
<path d="M7864 4395 c-3 -8 -3 -19 1 -25 3 -5 1 -10 -5 -10 -6 0 -8 -4 -5 -10
9 -15 11 -260 2 -260 -4 0 -4 -8 2 -17 5 -10 5 -26 1 -39 -5 -12 -6 -24 -3
-28 10 -9 10 -76 1 -76 -5 0 -5 -7 0 -17 6 -9 6 -29 2 -45 -5 -15 -6 -28 -2
-28 8 0 6 -85 -2 -106 -3 -8 -2 -14 2 -14 8 0 6 -85 -3 -99 -3 -5 -1 -12 4
-15 5 -4 8 -17 5 -30 -3 -20 0 -23 36 -24 21 -1 41 2 44 7 3 5 6 154 6 331 1
178 4 320 7 316 6 -6 48 -128 58 -166 2 -8 8 -27 14 -42 6 -16 8 -28 5 -28 -4
0 -1 -6 5 -14 7 -8 14 -25 17 -37 8 -39 12 -54 14 -56 2 -2 3 -6 5 -10 1 -5 5
-17 9 -28 19 -49 26 -71 29 -90 2 -11 9 -33 15 -48 7 -16 12 -34 12 -40 0 -7
9 -31 20 -54 18 -40 22 -43 57 -43 21 0 43 4 48 8 7 5 10 144 9 417 -1 226 -2
416 -3 423 -1 7 -16 12 -41 12 -37 0 -40 -2 -41 -27 0 -16 -1 -148 -1 -295 -1
-147 -5 -265 -10 -262 -4 3 -8 13 -8 23 0 9 -5 22 -12 29 -7 7 -9 12 -6 12 4
0 1 15 -7 34 -8 18 -11 36 -8 40 4 3 1 6 -5 6 -7 0 -11 3 -10 8 1 4 -15 61
-37 127 -22 66 -39 122 -40 125 0 3 -3 10 -6 15 -4 6 -10 26 -14 45 -4 19 -12
41 -17 48 -6 6 -8 12 -4 12 4 0 0 14 -9 30 -14 28 -20 30 -71 30 -38 0 -56 -4
-60 -15z"/>
</g>
</svg>
